<?xml version="1.0" standalone="no"?>
<!DOCTYPE svg PUBLIC "-//W3C//DTD SVG 20010904//EN"
 "http://www.w3.org/TR/2001/REC-SVG-20010904/DTD/svg10.dtd">
<svg version="1.0" xmlns="http://www.w3.org/2000/svg"
 width="174.000000pt" height="105.000000pt" viewBox="0 0 174.000000 105.000000"
 preserveAspectRatio="xMidYMid meet">
<metadata>
Created by potrace 1.16, written by Peter Selinger 2001-2019
</metadata>
<g transform="translate(0.000000,105.000000) scale(0.100000,-0.100000)"
fill="#000000" stroke="none">
<path d="M541 1001 c-48 -47 -42 -126 12 -174 25 -21 54 -15 85 19 31 35 32
124 0 154 -12 11 -25 20 -29 20 -4 0 -14 3 -22 6 -9 3 -28 -7 -46 -25z"/>
<path d="M50 730 c0 -20 7 -20 790 -20 783 0 790 0 790 20 0 20 -7 20 -790 20
-783 0 -790 0 -790 -20z"/>
<path d="M178 639 c-16 -11 -28 -26 -28 -32 0 -6 -11 -22 -23 -36 -13 -15 -35
-55 -48 -91 -20 -54 -24 -84 -24 -175 0 -120 14 -163 74 -226 26 -27 34 -29
98 -29 63 0 72 3 95 28 31 33 45 59 64 120 27 91 10 142 -47 142 -43 0 -169
-33 -169 -45 0 -22 38 -47 79 -52 35 -5 41 -9 41 -29 0 -26 -37 -86 -63 -104
-74 -47 -107 228 -43 361 29 62 62 109 77 109 5 0 9 -36 9 -79 0 -71 2 -82 22
-95 55 -39 82 -6 76 93 -3 64 -28 120 -53 121 -5 0 -21 9 -35 20 -32 25 -68
25 -102 -1z"/>
<path d="M545 643 c-3 -10 -9 -138 -12 -286 -6 -248 -5 -268 12 -287 11 -12
31 -20 52 -20 l33 0 0 293 c0 215 -3 296 -12 305 -18 18 -65 15 -73 -5z"/>
<path d="M893 643 c-13 -8 -23 -20 -23 -26 0 -6 -6 -18 -14 -26 -28 -31 -86
-143 -86 -166 0 -27 34 -55 66 -55 16 0 28 12 43 43 12 23 37 60 56 82 l35 40
0 -87 0 -88 -30 0 c-45 0 -92 -23 -132 -64 -59 -60 -60 -151 -3 -212 l33 -35
89 2 c53 1 97 -3 111 -10 16 -8 27 -9 42 -1 19 10 20 21 20 233 0 124 -5 239
-11 260 -7 28 -21 44 -52 63 -23 14 -54 34 -69 45 -32 23 -46 23 -75 2z"/>
<path d="M1422 621 c-38 -39 -39 -39 -55 -20 -19 21 -67 25 -85 7 -13 -13 -18
-524 -4 -544 11 -18 48 -34 76 -34 32 0 34 8 39 185 4 149 22 226 66 281 l21
27 0 -215 c0 -202 1 -215 20 -236 24 -26 72 -29 94 -6 23 23 24 505 1 528 -8
8 -15 19 -15 24 0 10 -82 42 -107 42 -7 0 -30 -18 -51 -39z"/>
</g>
</svg>
