<?xml version="1.0" standalone="no"?>
<!DOCTYPE svg PUBLIC "-//W3C//DTD SVG 20010904//EN"
 "http://www.w3.org/TR/2001/REC-SVG-20010904/DTD/svg10.dtd">
<svg version="1.0" xmlns="http://www.w3.org/2000/svg"
 width="240.000000pt" height="240.000000pt" viewBox="0 0 240.000000 240.000000"
 preserveAspectRatio="xMidYMid meet">
<metadata>
Created by potrace 1.16, written by Peter Selinger 2001-2019
</metadata>
<g transform="translate(0.000000,240.000000) scale(0.100000,-0.100000)"
fill="#000000" stroke="none">
<path d="M1714 2018 c-11 -18 -12 -48 -2 -48 5 0 4 -8 -1 -19 -6 -10 -7 -21
-4 -25 3 -3 1 -6 -6 -6 -8 0 -10 7 -6 20 5 15 3 18 -9 14 -9 -3 -16 -13 -16
-20 0 -12 -4 -12 -25 2 -14 9 -22 20 -19 25 3 5 -2 9 -10 9 -23 0 -28 -18 -9
-29 10 -6 13 -11 6 -11 -21 0 -44 31 -38 54 4 15 2 14 -10 -6 -9 -16 -23 -28
-33 -29 -11 0 -13 -2 -4 -6 10 -4 9 -9 -5 -20 -10 -8 -13 -12 -6 -9 7 4 13 -4
15 -21 2 -22 17 -37 65 -68 34 -22 62 -44 62 -49 1 -6 -8 -19 -18 -30 -17 -19
-18 -22 -3 -35 14 -13 15 -13 10 6 -8 29 14 20 44 -19 28 -37 34 -101 9 -95
-9 2 -15 9 -13 15 1 7 -5 12 -14 12 -8 0 -12 4 -9 10 4 6 -1 7 -11 3 -16 -6
-15 -8 4 -21 22 -15 32 -39 10 -26 -6 4 -8 3 -5 -4 4 -5 16 -8 27 -5 11 3 20
0 20 -6 0 -6 -6 -11 -14 -11 -7 0 -25 -9 -40 -21 -21 -17 -24 -24 -16 -40 9
-15 15 -17 30 -9 16 9 20 7 20 -5 0 -8 5 -15 10 -15 6 0 10 -8 9 -17 0 -15 -2
-15 -15 4 -18 25 -44 20 -44 -9 0 -14 5 -18 15 -14 8 3 15 1 15 -3 0 -8 -23
-21 -36 -21 -2 0 -4 15 -5 33 0 17 -3 39 -7 47 -9 20 -34 20 -39 0 -4 -13 -3
-13 7 0 9 12 11 10 6 -12 -5 -20 -2 -28 11 -31 13 -3 11 -5 -6 -6 -21 -1 -22
-3 -10 -18 13 -15 12 -15 -11 -3 -20 10 -23 10 -13 0 9 -10 9 -21 -2 -48 -19
-44 -19 -45 5 -30 17 11 25 10 48 -3 15 -8 26 -22 24 -31 -1 -9 2 -20 9 -23 7
-5 9 7 5 41 l-5 49 13 -40 c9 -28 10 -47 3 -62 -7 -16 -6 -27 2 -36 9 -12 7
-13 -14 -9 -14 2 -25 9 -25 14 0 5 -4 6 -10 3 -5 -3 -10 -2 -10 4 0 5 5 13 10
16 6 3 10 14 10 23 0 10 -6 5 -16 -13 -33 -64 -136 -147 -156 -127 -15 15 2
48 55 108 21 24 36 50 34 56 -3 8 -6 6 -6 -4 -1 -10 -6 -18 -12 -18 -5 0 -7 6
-3 13 4 6 -2 3 -14 -7 -23 -20 -30 -32 -12 -21 6 3 10 2 10 -4 0 -10 -19 -26
-32 -26 -3 0 -10 -4 -15 -9 -5 -5 -3 -6 5 -2 6 4 12 3 12 -2 0 -12 -35 -43
-42 -37 -7 7 -38 -41 -43 -66 -2 -12 4 -24 16 -32 27 -17 24 -44 -8 -62 -25
-14 -25 -15 -4 -9 18 5 22 3 16 -7 -4 -8 0 -6 11 3 10 10 18 30 19 45 0 20 6
29 20 31 l20 4 -20 -17 c-20 -16 -20 -16 3 -5 12 6 20 15 17 20 -3 5 22 23 55
40 58 29 74 54 27 43 -20 -5 -20 -4 8 26 26 28 30 30 37 14 3 -10 7 -13 7 -6
1 7 8 10 17 6 9 -3 12 -8 5 -12 -9 -6 -131 -253 -131 -266 0 -3 5 -3 12 1 7 5
8 3 4 -5 -5 -7 -10 -10 -13 -7 -3 3 -26 -36 -52 -87 -25 -51 -51 -92 -58 -92
-6 0 -15 -4 -20 -9 -5 -6 -2 -6 6 -1 11 6 13 4 8 -8 -5 -12 -1 -17 13 -17 11
0 21 6 22 13 0 6 2 17 3 22 2 6 3 17 4 25 1 13 3 13 10 1 15 -23 -14 -69 -46
-74 -16 -2 -1 -5 32 -6 39 0 74 -8 99 -22 21 -11 40 -18 43 -15 3 3 -15 15
-39 27 -39 19 -44 25 -40 47 4 20 2 24 -11 19 -14 -5 -14 -1 0 38 12 35 18 43
35 40 11 -3 23 -7 27 -11 3 -4 -1 -5 -10 -2 -21 8 -35 -2 -43 -29 -9 -30 2
-30 14 0 l9 22 0 -23 c1 -16 6 -22 18 -20 20 4 42 60 24 66 -6 2 -11 11 -10
20 0 11 2 12 6 5 2 -7 11 -13 18 -13 10 0 11 -8 2 -37 -6 -21 -17 -45 -24 -54
-15 -18 -18 -43 -3 -34 6 4 7 -1 3 -11 -4 -12 -2 -15 8 -12 8 3 21 41 33 101
15 80 21 95 32 86 18 -15 18 -29 -1 -29 -10 0 -15 -10 -15 -31 0 -36 21 -35
32 2 4 13 5 4 1 -21 -3 -25 -12 -49 -19 -53 -8 -4 -14 -16 -15 -25 -1 -10 -4
-7 -8 8 -7 24 -8 24 -13 -8 -4 -31 -3 -33 19 -27 25 6 28 -5 13 -40 -8 -19 -9
-19 -9 3 -1 21 -31 33 -31 12 0 -5 6 -10 13 -10 8 0 7 -4 -3 -10 -13 -8 -11
-11 8 -16 12 -4 22 -10 22 -15 0 -14 -12 -11 -44 10 -17 11 -34 17 -39 14 -6
-4 -7 -1 -2 7 6 10 3 12 -13 8 -12 -4 -20 -2 -16 3 5 8 -23 11 -113 13 -33 1
-40 -28 -8 -30 54 -2 65 -5 65 -14 0 -6 -12 -8 -27 -4 -21 4 -24 3 -13 -5 12
-8 10 -12 -10 -21 -23 -10 -23 -10 -3 -6 13 2 26 0 29 -6 10 -15 1 -17 -39 -8
-28 6 -37 5 -34 -3 2 -7 22 -13 45 -15 40 -3 41 -2 53 38 12 39 14 41 43 36
59 -12 60 -25 11 -101 -56 -85 -49 -79 -74 -66 -19 10 -19 13 -5 46 8 19 10
35 5 35 -5 0 -12 -13 -16 -30 -6 -27 -10 -30 -43 -29 l-37 1 33 10 c17 6 32
15 32 20 0 5 -9 6 -21 3 -91 -29 -160 -45 -196 -45 -32 0 -43 -4 -43 -16 0
-10 6 -14 18 -11 34 10 92 18 158 22 58 4 65 2 60 -12 -5 -13 -4 -14 8 -4 11
10 24 9 57 -2 23 -8 37 -17 32 -20 -6 -4 -24 -1 -41 5 -25 10 -34 9 -49 -3
-10 -9 -36 -17 -58 -18 -48 -2 -64 -15 -49 -39 9 -13 28 -18 93 -20 51 -2 81
1 81 8 0 5 5 9 12 8 7 -2 13 3 14 10 1 6 3 13 4 15 1 1 3 14 4 29 1 15 5 30 8
33 4 4 5 12 2 19 -3 7 6 13 22 14 15 1 30 5 33 8 3 4 -7 4 -22 2 -18 -4 -26
-1 -24 6 4 11 19 12 270 7 113 -3 137 -6 133 -17 -3 -8 -1 -13 3 -11 11 3 12
-8 4 -29 -5 -13 -8 -13 -15 -2 -8 10 -9 9 -5 -4 4 -12 -2 -20 -21 -27 -17 -6
-21 -10 -10 -10 10 -1 31 11 48 27 l31 27 -26 50 c-14 28 -23 41 -20 30 4 -18
1 -20 -46 -16 -35 2 -48 6 -41 13 6 6 9 16 8 22 -2 6 -1 8 1 3 3 -4 10 -4 15
-1 6 4 8 2 5 -3 -13 -21 26 -24 47 -4 15 13 30 17 54 14 18 -3 39 0 47 7 18
15 20 34 3 24 -7 -5 -8 -3 -3 6 6 9 2 10 -16 4 -13 -4 -38 -8 -55 -9 -17 0
-37 -5 -45 -12 -15 -12 -69 -6 -69 7 0 5 9 6 20 3 11 -3 30 1 42 9 13 8 42 13
66 12 23 -1 42 2 42 7 0 5 7 9 16 9 8 0 13 -4 9 -9 -3 -5 -1 -13 5 -16 6 -4
10 -16 8 -27 -2 -12 3 -23 12 -25 12 -4 13 -3 1 5 -11 8 -7 14 20 28 35 18 58
41 59 59 0 6 -4 4 -9 -4 -7 -11 -10 -9 -15 7 -4 11 -14 19 -24 17 -9 -1 -11 0
-4 2 16 6 17 0 -22 101 -41 104 -42 110 -29 143 7 16 8 42 2 73 -5 27 -6 52
-3 57 3 5 0 8 -8 7 -8 -2 -13 6 -12 19 0 12 -4 21 -10 20 -6 -1 -12 12 -14 28
-2 26 -13 76 -29 138 -3 10 1 17 11 17 8 0 27 5 43 12 15 6 31 11 36 10 4 -1
6 3 5 9 -2 6 3 14 11 17 9 3 11 0 6 -9 -5 -8 -4 -11 1 -6 5 5 9 12 10 15 0 4
4 15 7 25 14 37 16 48 8 43 -5 -3 -14 1 -21 10 -7 8 -19 13 -27 10 -7 -3 -13
-1 -13 4 0 6 7 10 16 10 13 0 14 3 5 13 -6 8 -7 18 -3 22 4 5 1 5 -6 1 -9 -6
-12 -3 -10 9 2 10 -4 20 -12 22 -13 4 -13 3 0 -6 10 -7 11 -11 3 -11 -23 0
-27 5 -25 30 1 23 1 23 -7 5 -9 -19 -10 -19 -10 3 -1 12 -5 22 -11 22 -5 0
-10 5 -10 11 0 5 6 7 13 3 6 -4 3 2 -7 14 -11 12 -20 22 -20 22 -1 0 -2 -17
-3 -38 -1 -21 -9 -64 -18 -96 -9 -31 -15 -61 -13 -67 2 -6 12 23 22 65 20 78
36 99 36 47 0 -41 9 -61 26 -54 16 6 38 -42 27 -60 -4 -6 0 -8 10 -4 8 3 21
-1 28 -9 10 -13 7 -20 -18 -46 -27 -27 -32 -29 -52 -17 -28 18 -27 24 10 42
18 8 27 17 20 21 -6 4 -11 18 -11 31 0 38 -17 38 -44 2 -24 -31 -26 -43 -26
-118 1 -112 -15 -262 -32 -288 -17 -28 -50 -36 -80 -20 -21 11 -22 11 -9 -5
21 -25 70 -17 94 15 12 18 23 58 31 120 10 72 14 88 20 68 4 -15 3 -53 -3 -85
-6 -32 -10 -74 -10 -93 1 -40 5 -30 14 43 5 35 9 45 16 35 20 -33 -4 -143 -35
-161 -9 -5 -16 -14 -16 -20 0 -6 7 -5 17 3 21 18 52 87 53 119 1 23 2 23 10 5
18 -42 11 -100 -14 -124 -31 -30 -94 -38 -133 -18 -42 22 -103 93 -103 120 0
16 -3 18 -9 9 -12 -20 -22 68 -15 137 6 54 5 59 -15 66 -11 3 -21 12 -21 18 0
21 17 40 29 33 8 -5 11 22 11 91 0 119 8 173 26 173 19 0 10 73 -14 107 -11
15 -23 42 -27 59 -6 31 -6 31 42 37 61 7 72 0 94 -58 18 -46 18 -48 -2 -91
-12 -24 -19 -49 -16 -56 4 -8 6 -6 6 5 2 36 20 15 26 -30 9 -65 13 -75 14 -32
1 20 -4 50 -10 68 -12 35 -5 82 13 78 7 -1 13 7 14 18 3 19 3 19 -3 1 -4 -17
-7 -16 -18 10 -24 58 -28 77 -15 69 9 -5 11 -4 6 4 -4 6 -12 9 -17 6 -5 -4
-12 1 -15 9 -3 9 -14 16 -23 17 -10 0 -12 2 -3 6 7 3 19 0 26 -7 11 -8 16 -8
22 1 4 8 3 9 -4 5 -7 -4 -12 -2 -12 3 0 6 9 11 19 11 11 0 23 5 26 11 4 6 13
8 21 5 7 -3 16 0 20 6 4 7 3 8 -4 4 -17 -10 -15 3 3 20 8 9 19 13 24 9 5 -3
13 0 17 6 4 8 3 9 -4 5 -15 -9 -16 16 -2 30 13 13 -24 59 -39 49 -6 -3 -11 -2
-11 3 0 18 -48 20 -66 3 -14 -13 -16 -14 -12 -1 3 8 1 23 -4 32 -7 14 -5 16 8
11 14 -5 15 -3 4 16 -15 29 -39 11 -32 -24 2 -14 0 -25 -6 -25 -6 0 -9 9 -7
20 2 11 -1 20 -7 20 -6 0 -5 7 3 18 13 15 12 16 -3 3 -10 -7 -18 -20 -18 -27
0 -17 -10 -17 -32 0 -13 10 -15 15 -6 24 7 7 9 12 6 12 -4 0 -10 -6 -14 -12z"/>
<path d="M706 1138 c40 -28 58 -72 38 -92 -9 -10 -10 -17 -4 -21 6 -4 8 -11 4
-16 -3 -5 -10 -7 -15 -4 -5 3 -6 -1 -3 -9 3 -9 2 -16 -3 -16 -19 0 -33 -39
-23 -65 7 -17 7 -24 0 -20 -6 3 -10 1 -10 -4 0 -6 7 -11 15 -11 8 0 15 9 15
19 0 11 4 22 10 26 5 3 7 12 3 20 -10 27 6 16 22 -14 9 -19 11 -32 5 -36 -6
-3 -10 -1 -10 4 0 27 -15 7 -17 -22 -2 -22 0 -28 7 -17 5 9 22 13 44 12 28 -2
36 2 42 20 12 38 3 120 -17 144 -6 8 -8 14 -4 14 4 0 -12 23 -35 50 -23 28
-46 48 -50 45 -5 -3 -11 -1 -15 5 -3 5 -11 10 -18 10 -6 0 2 -10 19 -22z"/>
<path d="M1318 1073 c-6 -22 -131 -88 -147 -79 -7 4 -10 2 -9 -5 2 -7 -19 -25
-47 -41 -53 -29 -70 -34 -60 -18 3 6 -1 7 -10 3 -11 -4 -13 -8 -5 -13 15 -9 6
-16 -130 -90 -63 -35 -130 -78 -148 -97 l-32 -32 25 -7 25 -6 -40 -48 c-22
-26 -40 -50 -40 -53 0 -3 65 -7 144 -9 133 -3 143 -2 135 14 -5 9 -14 20 -19
23 -6 3 -10 11 -10 17 0 7 4 7 13 -1 10 -8 14 -7 14 4 0 8 -3 13 -5 10 -3 -3
-12 1 -20 8 -13 9 -14 9 -8 0 4 -7 3 -13 -1 -13 -5 0 -14 9 -21 21 -14 22 -17
22 45 4 12 -3 30 -8 40 -10 10 -3 44 -11 76 -19 32 -8 57 -10 57 -5 0 5 -6 11
-12 13 -20 5 -212 51 -220 52 -5 1 -11 2 -15 3 -5 1 -1 6 7 12 12 8 10 9 -7 4
-16 -4 -23 -1 -28 15 -3 11 -11 20 -16 20 -6 0 -7 5 -4 10 3 6 11 10 16 10 6
0 8 -4 5 -9 -3 -5 2 -15 11 -22 15 -12 16 -12 8 1 -17 28 -13 39 22 60 40 24
65 27 37 4 -18 -14 -18 -15 4 -4 12 6 20 15 17 20 -3 5 3 14 14 19 26 14 34
14 25 -1 -4 -7 -3 -8 5 -4 6 4 9 11 6 16 -3 5 3 14 14 19 26 14 34 14 25 -1
-4 -8 -3 -10 2 -5 5 5 9 14 9 20 0 7 10 12 22 11 12 0 21 4 20 9 -3 13 193
126 218 126 l20 0 -20 -9 c-23 -10 -5 -13 20 -4 12 5 14 9 4 14 -9 6 -8 12 4
25 21 21 23 42 2 25 -10 -9 -15 -9 -15 -1 0 18 -17 13 -22 -6z"/>
<path d="M430 975 c14 -17 -12 -44 -54 -53 l-31 -6 30 -6 29 -5 -38 -37 c-34
-33 -37 -39 -30 -74 4 -25 3 -35 -4 -30 -6 3 -9 0 -8 -6 6 -35 33 -62 88 -88
51 -24 72 -28 135 -27 53 0 87 6 116 21 22 11 36 21 29 24 -17 5 7 64 36 86
21 17 22 20 8 28 -9 5 -25 6 -36 3 -14 -5 -28 3 -50 27 -28 31 -40 56 -21 44
4 -3 6 6 3 20 -3 19 -7 22 -14 12 -6 -9 -8 -6 -6 12 3 21 -1 25 -21 22 -36 -4
-52 -21 -45 -49 10 -36 -17 -25 -38 17 -24 48 -39 66 -66 72 -18 5 -21 4 -12
-7z"/>
<path d="M1980 514 c-24 -15 -16 -14 23 1 9 4 17 3 17 -3 0 -6 -15 -15 -34
-22 -18 -6 -44 -22 -56 -35 -13 -14 -34 -25 -47 -25 -31 0 -42 -29 -17 -47 14
-10 39 -12 99 -8 43 3 81 8 83 10 2 2 0 9 -4 17 -4 7 -8 27 -7 45 0 18 -4 30
-9 27 -5 -3 -8 6 -6 22 4 33 -9 38 -42 18z"/>
</g>
</svg>
